<svg xmlns="http://www.w3.org/2000/svg" xmlns:xlink="http://www.w3.org/1999/xlink" width="18" height="20" viewBox="0 0 18 20">
    <defs>
        <path id="b" d="M0 26h1328v818H0z"/>
        <filter id="a" width="102.3%" height="103.7%" x="-1.1%" y="-1.5%" filterUnits="objectBoundingBox">
            <feOffset dy="3" in="SourceAlpha" result="shadowOffsetOuter1"/>
            <feGaussianBlur in="shadowOffsetOuter1" result="shadowBlurOuter1" stdDeviation="4.5"/>
            <feColorMatrix in="shadowBlurOuter1" values="0 0 0 0 0 0 0 0 0 0 0 0 0 0 0 0 0 0 0.2 0"/>
        </filter>
        <path id="d" d="M2 0h95a2 2 0 0 1 2 2v34a2 2 0 0 1-2 2H2a2 2 0 0 1-2-2V2a2 2 0 0 1 2-2z"/>
        <filter id="c" width="121.2%" height="155.3%" x="-10.6%" y="-27.6%" filterUnits="objectBoundingBox">
            <feOffset in="SourceAlpha" result="shadowOffsetOuter1"/>
            <feGaussianBlur in="shadowOffsetOuter1" result="shadowBlurOuter1" stdDeviation="3.5"/>
            <feColorMatrix in="shadowBlurOuter1" values="0 0 0 0 0 0 0 0 0 0 0 0 0 0 0 0 0 0 0.8 0"/>
        </filter>
    </defs>
    <g fill="none" fill-rule="evenodd">
        <path fill="#EDEDED" d="M-1613-266H307V964h-1920z"/>
        <g transform="translate(-1317 -91)">
            <use fill="#000" filter="url(#a)" xlink:href="#b"/>
            <use fill="#FFF" xlink:href="#b"/>
        </g>
        <path fill="#EFF9F9" d="M-1317-65H11V6h-1328z"/>
        <g>
            <g transform="translate(-11 -9)">
                <use fill="#000" filter="url(#c)" xlink:href="#d"/>
                <use fill="#FFF" xlink:href="#d"/>
            </g>
            <g stroke="#4A4A4A">
                <path d="M16 6v11.086c0 .525-.225 1.006-.588 1.352-.36.347-.86.562-1.404.562H3.99a2.02 2.02 0 0 1-1.404-.562A1.864 1.864 0 0 1 2 17.086V6M6 15V9M9 15V9M12 15V9M6 3c0-.55.207-1.05.542-1.415A1.766 1.766 0 0 1 7.843 1h2.315c.507 0 .967.224 1.3.586.336.364.542.866.542 1.414"/>
                <path d="M2.068 3h13.864a1.1 1.1 0 0 1 .754.294A.965.965 0 0 1 17 4v.72c0 .155-.134.28-.3.28H1.299C1.135 5 1 4.875 1 4.72V4a.98.98 0 0 1 .312-.706h.004C1.51 3.112 1.777 3 2.068 3z"/>
            </g>
        </g>
    </g>
</svg>
