<svg xmlns="http://www.w3.org/2000/svg" width="25" height="24" viewBox="0 0 25 24">
    <path fill="none" fill-rule="evenodd" stroke="#FFF" stroke-width=".5" d="M20.685 7.373a1.433 1.433 0 0 0-2.815-.534l-.854 4.488c-.07-.026-.14-.052-.212-.076l.54-6.93a1.433 1.433 0 0 0-2.857-.222l-.508 6.54a11.853 11.853 0 0 0-.291-.031V2.429c0-.79-.641-1.429-1.433-1.429-.79 0-1.432.64-1.432 1.43v8.203c-.053.006-.106.01-.16.018l-.702-6.702a1.432 1.432 0 0 0-2.849.298l.763 7.282c-.075.044-.144.091-.215.138l-.853-2.431a1.433 1.433 0 0 0-2.704.946l2.338 6.666c.204.751.827 2.804 1.732 3.523.358.375.234.616.048.893-.184.277-.472.972.063 1.123 4.763 1.344 9.366.058 9.366.058s1.13-.283.391-1.366c-.408-.597-.272-.579 0-1.017.852-1.379 1.45-6.036 1.56-7.004l1.084-5.685z"/>
</svg>
