<svg xmlns="http://www.w3.org/2000/svg" width="22" height="30" viewBox="0 0 22 30">
    <g fill="none" fill-rule="evenodd">
        <path stroke="#FFF" stroke-width="2" d="M21 26.361a2.464 2.464 0 0 1-2.465 2.465H3.465A2.465 2.465 0 0 1 1 26.361V3.465A2.465 2.465 0 0 1 3.465 1h15.07A2.464 2.464 0 0 1 21 3.465V26.36z"/>
        <path fill="#FFF" d="M19 24.874C19 26.048 18.117 27 17.028 27H4.972C3.882 27 3 26.048 3 24.874V5.126C3 3.952 3.883 3 4.972 3h12.056C18.118 3 19 3.952 19 5.126v19.748zm-1.176-10.11a1.463 1.463 0 1 0-2.926 0 1.463 1.463 0 0 0 2.926 0z"/>
    </g>
</svg>
