<svg xmlns="http://www.w3.org/2000/svg" width="22" height="30" viewBox="0 0 22 30">
    <g fill="none" fill-rule="evenodd">
        <path stroke="#BBEEF3" stroke-width="2" d="M21 26.361a2.464 2.464 0 0 1-2.465 2.465H3.465A2.465 2.465 0 0 1 1 26.361V3.465A2.465 2.465 0 0 1 3.465 1h15.07A2.464 2.464 0 0 1 21 3.465V26.36z"/>
        <path fill="#BBEEF3" d="M2 1l10.987 2.493c2.378.712 2.773 1.111 2.773 2.482v16.046c0 1.37-.854 1.841-2.773 2.482L2 27.9V1zm10.824 13.763a1.463 1.463 0 1 0-2.926.001 1.463 1.463 0 0 0 2.926 0z"/>
    </g>
</svg>
