<svg xmlns="http://www.w3.org/2000/svg" width="22" height="30" viewBox="0 0 22 30">
    <g fill="none" fill-rule="evenodd">
        <path stroke="#FFF" stroke-width="2" d="M21 26.361a2.464 2.464 0 0 1-2.465 2.465H3.465A2.465 2.465 0 0 1 1 26.361V3.465A2.465 2.465 0 0 1 3.465 1h15.07A2.464 2.464 0 0 1 21 3.465V26.36z"/>
        <path fill="#FFF" d="M1 1l10.988 2.494c2.38.712 2.774 1.111 2.774 2.482v16.049c0 1.37-.853 1.841-2.774 2.482L1 27.904V1zm11.498 13.289a1.463 1.463 0 1 0-2.926 0 1.463 1.463 0 0 0 2.926 0z"/>
    </g>
</svg>
