<svg xmlns="http://www.w3.org/2000/svg" width="25" height="25" viewBox="0 0 25 25">
    <g fill="#FFF" fill-rule="evenodd">
        <path d="M14.955 17.47l2.888 4.413c.119.183.384.24.566.121a.402.402 0 0 0 .12-.56L15.64 17.03l-.686.441zm3.233 5.272c-.368 0-.708-.184-.91-.491l-3.256-4.98 1.816-1.17 3.255 4.977a1.072 1.072 0 0 1-.905 1.664zM7.788 11.194h7.405v-.672H7.788z"/>
        <path d="M11.154 14.539h.673v-7.36h-.673z"/>
        <path d="M11.175 3.592c-3.309 0-6.208 2.337-6.893 5.557a6.948 6.948 0 0 0 .99 5.285 7.036 7.036 0 0 0 4.461 3.048c.49.104.99.157 1.485.157 3.308 0 6.206-2.337 6.891-5.556a6.945 6.945 0 0 0-.99-5.285 7.043 7.043 0 0 0-4.461-3.05 7.177 7.177 0 0 0-1.483-.156m.043 14.719c-.542 0-1.09-.058-1.624-.172a7.702 7.702 0 0 1-4.885-3.338A7.614 7.614 0 0 1 3.623 9.01c.752-3.529 3.928-6.09 7.552-6.09.542 0 1.088.057 1.622.17a7.71 7.71 0 0 1 4.885 3.34 7.613 7.613 0 0 1 1.085 5.793c-.75 3.527-3.925 6.088-7.549 6.088"/>
    </g>
</svg>
