<svg xmlns="http://www.w3.org/2000/svg" width="25" height="25" viewBox="0 0 25 25">
    <g fill="#FFF" fill-rule="evenodd">
        <path d="M7.829 11.32h7.573v-.84H7.829z"/>
        <path d="M11.175 3.58c-3.237 0-6.072 2.296-6.743 5.46a6.85 6.85 0 0 0 .97 5.191 6.882 6.882 0 0 0 4.362 2.995c.48.102.968.154 1.453.154 3.235 0 6.07-2.296 6.74-5.458a6.848 6.848 0 0 0-.968-5.192 6.888 6.888 0 0 0-4.364-2.997 6.99 6.99 0 0 0-1.45-.153m.042 14.46c-.53 0-1.066-.057-1.589-.168a7.533 7.533 0 0 1-4.778-3.28 7.507 7.507 0 0 1-1.062-5.69C4.523 5.437 7.63 2.92 11.175 2.92c.53 0 1.064.056 1.586.168a7.54 7.54 0 0 1 4.779 3.28A7.507 7.507 0 0 1 18.6 12.06c-.735 3.466-3.84 5.981-7.384 5.981"/>
        <path d="M14.617 17.745l2.779 4.467c.114.184.37.242.545.122a.41.41 0 0 0 .17-.258.424.424 0 0 0-.055-.308l-2.779-4.47-.66.447zm3.111 5.335a1.03 1.03 0 0 1-.875-.496l-3.134-5.04 1.748-1.184 3.132 5.036c.152.245.203.537.146.821-.058.285-.219.53-.452.688-.169.114-.365.175-.565.175z"/>
    </g>
</svg>
