<svg xmlns="http://www.w3.org/2000/svg" width="20" height="11" viewBox="0 0 20 11">
    <g fill="none" fill-rule="evenodd">
        <path fill="#B5B5B5" d="M14.386 11H1.443C.646 11 0 10.273 0 9.376V1.624C0 .727.646 0 1.443 0h12.943c.335 0 .66.131.919.372l4.17 3.876c.7.65.7 1.855 0 2.504l-4.17 3.876a1.35 1.35 0 0 1-.92.372z"/>
        <path fill="#FFF" d="M13.32 4h.361C14.406 4 15 4.593 15 5.32v.36C15 6.408 14.406 7 13.681 7h-.362C12.593 7 12 6.407 12 5.68v-.36c0-.727.593-1.32 1.32-1.32z"/>
    </g>
</svg>
