<svg xmlns="http://www.w3.org/2000/svg" width="93" height="128" viewBox="0 0 93 128">
    <defs>
        <filter id="a" width="139%" height="126.4%" x="-16.7%" y="-11.4%" filterUnits="objectBoundingBox">
            <feOffset dx="2" dy="2" in="SourceAlpha" result="shadowOffsetOuter1"/>
            <feGaussianBlur in="shadowOffsetOuter1" result="shadowBlurOuter1" stdDeviation="4.5"/>
            <feColorMatrix in="shadowBlurOuter1" result="shadowMatrixOuter1" values="0 0 0 0 0 0 0 0 0 0 0 0 0 0 0 0 0 0 1 0"/>
            <feMerge>
                <feMergeNode in="shadowMatrixOuter1"/>
                <feMergeNode in="SourceGraphic"/>
            </feMerge>
        </filter>
    </defs>
    <g fill="#FFF" fill-rule="evenodd" filter="url(#a)" transform="translate(7 7)">
        <path d="M37.267 106.938c-.758-.267-1.002-.474-1.002-.852 0-.315.28-.634.905-.634.436 0 .77.12.972.221l.119.06.266-.717-.081-.042c-.185-.095-.592-.254-1.252-.254-1.096 0-1.863.591-1.863 1.439 0 .687.478 1.161 1.501 1.491.698.244.946.475.946.881 0 .454-.389.736-1.017.736a2.54 2.54 0 0 1-1.192-.306l-.126-.07-.243.735.07.042c.322.196.915.332 1.443.332 1.481 0 2.007-.82 2.007-1.52 0-.724-.435-1.184-1.453-1.542zM40.48 105.49h1.368V110h.777v-4.51H44v-.77h-3.52zM48.5 107.778c0 .678-.174 1.486-1.003 1.486-.618 0-.958-.528-.958-1.486v-3.058h-.779v3.043c0 1.946 1.075 2.237 1.716 2.237 1.146 0 1.804-.826 1.804-2.266v-3.014h-.78v3.058zM55.706 109.272c-.13 0-.31-.003-.447-.022v-3.761c.116-.025.29-.049.531-.049.523 0 .924.167 1.19.497.254.31.38.756.377 1.323 0 1.297-.586 2.012-1.651 2.012m.06-4.552c-.374 0-.756.035-1.133.104l-.073.014v5.092l.076.01c.286.04.611.06.967.06.819 0 1.464-.258 1.864-.748.401-.483.613-1.18.613-2.014 0-.792-.203-1.42-.602-1.868-.384-.437-.944-.65-1.712-.65M60.72 110h.88v-5.28h-.88zM66 109.276c-1.13 0-1.646-.978-1.646-1.887 0-.968.511-1.945 1.654-1.945 1.13 0 1.646.982 1.646 1.893 0 .966-.512 1.939-1.654 1.939m.041-4.556c-1.579 0-2.681 1.104-2.681 2.684 0 1.529 1.069 2.596 2.599 2.596 1.852 0 2.681-1.352 2.681-2.69 0-1.55-1.044-2.59-2.599-2.59M13.263 81.84l-3.641.949v3.814H7.04v2.912h2.582v8.525c0 2.165.402 3.582 1.255 4.445.795.886 2.015 1.355 3.526 1.355 1.127 0 2.127-.152 2.814-.428l.225-.09-.177-2.858-.405.106c-.326.087-.879.19-1.666.19-1.371 0-1.93-.817-1.93-2.822v-8.423H17.6v-2.912h-4.337V81.84zM29.913 96.052c0 .516-.073 1.027-.205 1.439-.544 1.66-1.944 2.733-3.567 2.733-3.111 0-4.215-2.901-4.215-5.386 0-3.399 1.706-5.683 4.247-5.683 2.021 0 3.183 1.46 3.597 2.831.1.31.143.672.143 1.21v2.856zm.365-7.65c-.717-.96-2.11-2.162-4.58-2.162-1.894 0-3.67.818-5 2.303-1.45 1.62-2.218 3.853-2.218 6.459 0 2.218.68 4.255 1.913 5.735 1.256 1.506 3.005 2.337 4.925 2.337 1.9 0 3.54-.743 4.626-2.067v.855c0 3.417-1.6 5.223-4.626 5.223-2.24 0-3.776-.838-4.33-1.198l-.34-.22-.897 2.828.199.137c1.22.844 3.241 1.368 5.273 1.368 1.704 0 4.091-.345 5.782-1.987 1.584-1.466 2.29-3.778 2.29-7.496v-9.225c0-1.9.06-3.14.126-4.347l.019-.344h-3.067l-.095 1.801zM42.001 100.953c-2.006 0-3.862-.821-4.563-1.255l-.346-.214-1.012 2.77.213.135c1.055.67 3.192 1.451 5.741 1.451 5.614 0 8.126-3.273 8.126-6.516 0-2.551-1.614-4.6-4.183-5.405 2.147-1.005 3.36-2.732 3.36-4.835 0-1.411-.562-2.702-1.583-3.635-1.15-1.053-2.832-1.609-4.864-1.609-2.393 0-4.632.829-5.788 1.651l-.196.14.985 2.647.35-.242c.875-.603 2.47-1.309 4.09-1.309 2.145 0 3.426 1.048 3.426 2.802 0 2.336-2.66 3.184-4.447 3.184h-1.939v2.728h1.94c2.38 0 5.17 1.001 5.203 3.825a3.43 3.43 0 0 1-1.003 2.506c-.795.783-1.976 1.18-3.51 1.18M64.23 97.273c0 .478-.036.843-.117 1.186-.442 1.94-1.945 3.242-3.738 3.242-3.076 0-4.168-3.03-4.168-5.625 0-3.524 1.7-5.89 4.23-5.89 2.065 0 3.334 1.575 3.678 3.15.071.278.115.705.115 1.143v2.794zm3.375 2.594V80.08H64.23v9.02c-.682-.816-2.012-1.868-4.325-1.868-1.789 0-3.472.746-4.74 2.102-1.542 1.647-2.381 4.089-2.365 6.875 0 4.932 2.857 8.511 6.792 8.511 2.047 0 3.873-.94 4.963-2.508l.097 2.142h3.108l-.03-.359c-.109-1.26-.125-3.127-.125-4.128zM1.573 37.4c0-6.532 1.75-12.655 4.804-17.928v35.856A35.664 35.664 0 0 1 1.573 37.4zm6.378 23.056A37.451 37.451 0 0 0 26.718 73.25H7.951V60.456zm0-41.421l.126.073.356.123-.212.355.022.243.4.534.302.122.197.045 1.075.076.417.074 1.26.473.184.04.684.048.062.001.932-.023.606.21.032.01 1.714.5 4.398 2.031.06.025 1.579.545.087.024 1.222.24 2.587 1.042 2.41 1.065.09.032 1.003.279 1.236 1.736.486 2.153.346 2.125.004.025.427 2.098-.259 1.896-.003.143.128 1.36-.462 3.22-.004.033-.18 1.98-.242 2.976v.097l.284 3.835.002.024.73 6.449-.028.947-.342 2.254-.006.146.263 3.173.013.086 1.21 5.424-.106 1.392-.77.773-.444.339-.201.745.049.118c-9.81-1.576-18.288-7.134-23.724-14.965v-38.77zm0-1.792l.101-.267.264-.01.73.268.21.08.21.078-.24-.284-.041-.05-.447-.433.031-.25.364-.035 2.59 1.24.033-.103.104-.315.148-.106.381.277.715 1.075 1.297.747.936.237 5.824 1.094 2.582 1.056 3.528 1.028 1.434.716 1.717-.224 1.665.285 1.69.046 1.533-1.204.271-.929-.48-1.479-.537-.58-.272-1.07.23-.842.251-.072.133-1.41.813-1.284.557-.248h2.247l.558.248.813 1.285.133 1.41.195.055.057.016.229.841-.272 1.072-.538.58-.479 1.478.271.929.852.67.68.534 1.69-.046 1.666-.285.859.112.858.112.717-.358.717-.358 3.528-1.028 2.582-1.056 5.824-1.094.936-.237 1.297-.747.715-1.075.381-.277.086.062.062.044.137.418 1.332-.638 1.258-.602.363.035.032.25-.222.215-.225.217-.037.15.175.027.731-.268.264.01.101.267-.238.233-.734.408-.09.186.138.024.525-.098.213.031.083.271-.236.209-1.714.592-.305.189.377.1.842.043.113.05.111.05-.021.242-.177.07-.125.051-.554.04-.554.039-.511.09-1.316.495-.638.044-.045.003-1.052-.026-.718.25-1.761.514-4.443 2.05-1.578.546-1.282.253-2.655 1.068-2.42 1.07-1.225.34-1.442 2.025-.518 2.297-.35 2.144-.448 2.202.274 2.002-.135 1.433.473 3.295.18 1.98.241 2.97-.284 3.835-.735 6.493.031 1.03.303 1.993.045.298-.262 3.174L41 69.356l.132 1.718.966.97.146.11.332.255-.14.337-1.056.26h-.006l-1.022-.048-.867.04-.87-.57.037-1.116.072-.45.073-.45.434-2.276-.379-5.788.169-3.523-.456-1.654-.196-4.12-.544-5.099.073-1.857-.498-.106-.498.106.073 1.857-.544 5.099-.196 4.12-.457 1.654.17 3.523-.38 5.788.436 2.276.144.9.037 1.115-.87.571-.867-.04-1.022.048h-.006l-1.055-.26-.141-.337.478-.366.966-.969.132-1.718-1.232-5.515-.262-3.174.348-2.291.03-1.03-.734-6.493-.284-3.835.24-2.97.181-1.98.473-3.295-.135-1.433.274-2.002-.449-2.202-.349-2.144-.518-2.297-1.442-2.024-1.225-.34-2.42-1.07-2.655-1.069-.641-.127-.64-.126-1.58-.546-4.442-2.05-1.76-.514-.72-.25-1.05.026-.684-.047-1.317-.495-.51-.09-.554-.04-.554-.039-.15-.06-.152-.061-.022-.242.225-.1.842-.043.52-.079-.448-.21-1.714-.592-.236-.209.083-.27.213-.032.525.098.364.047-.316-.257-.734-.408-.238-.232v-.001zm2.088-2.968h25.075l-.757 1.195-.095.28-.105 1.112-.26.261-.23.842-.002.319.27 1.072.151.275.443.477.377 1.162-.16.548-1.187.932-1.407-.039-1.62-.277-.196-.003-1.518.198L27.563 22l-.109-.042-3.495-1.018-2.55-1.043-.126-.038-5.805-1.09-.829-.21-1.088-.627-.63-.95-.159-.163-.382-.277-.763-.002-.148.106-.058.08-2.006-.96-.344-.06-.196.018a36.15 36.15 0 0 1 1.164-1.45zM37.4 1.575c10.33 0 19.637 4.373 26.176 11.367H11.224C17.763 5.948 27.07 1.574 37.4 1.574zm27.361 12.7c.4.473.789.956 1.164 1.45l-.196-.019-.344.061-2.006.96-.058-.08-.148-.106-.763.002-.382.277-.158.163-.631.95-1.088.626-.83.21-5.804 1.091-.126.038-2.55 1.043-3.495 1.018-.11.042-1.255.628-1.517-.198-.196.003-1.62.277-1.407.04-1.187-.933-.16-.548.377-1.162.443-.477.15-.275.271-1.072-.003-.32-.229-.84-.26-.262-.105-1.113-.095-.28-.757-1.194h25.075zm2.088 43.528c-5.436 7.831-13.913 13.39-23.724 14.966l.05-.118-.202-.745-.444-.34-.77-.772-.107-1.392 1.211-5.424.013-.086.263-3.173-.006-.146-.342-2.254-.028-.947.73-6.449.002-.024.284-3.835v-.097l-.241-2.97-.181-1.986-.004-.032-.462-3.221.128-1.36-.003-.143-.26-1.896.428-2.098.004-.025.346-2.125.486-2.153 1.236-1.736 1.003-.279.09-.032 2.41-1.065 2.587-1.042 1.222-.24.087-.024 1.578-.545.06-.025 4.399-2.03 1.714-.5.032-.01.606-.21.932.022.062-.001.684-.048.184-.04 1.26-.473.417-.074 1.075-.076.197-.045.302-.122.4-.534.022-.243-.212-.355.356-.123.126-.073v38.768zm0 15.447H48.082a37.449 37.449 0 0 0 18.767-12.794V73.25zM37.4 73.226c-.412 0-.822-.01-1.23-.023l.373-.245.288-.551-.037-1.115-.007-.079-.145-.9-.003-.019-.42-2.197.374-5.709v-.07l-.164-3.423.43-1.558.022-.137.195-4.1.324-3.04.324 3.04.195 4.1.022.137.43 1.558-.164 3.423v.07l.374 5.71-.42 2.196-.003.018-.145.901-.007.079-.037 1.115.288.551.374.245c-.41.013-.819.023-1.231.023zm31.023-53.754A35.664 35.664 0 0 1 73.227 37.4a35.66 35.66 0 0 1-4.804 17.928V19.472zM6.377 74.8h62.046V58.295A37.227 37.227 0 0 0 74.8 37.4c0-7.74-2.35-14.929-6.377-20.895v-3.563h-2.728C58.837 5.016 48.705 0 37.4 0 26.095 0 15.963 5.016 9.105 12.942H6.377v3.563A37.227 37.227 0 0 0 0 37.4c0 7.74 2.35 14.93 6.377 20.895V74.8z"/>
    </g>
</svg>
