<svg xmlns="http://www.w3.org/2000/svg" width="201" height="39" viewBox="0 0 201 39">
    <g fill="#FFF" fill-rule="evenodd">
        <path d="M24.732 6.377l-3.577 3.459c-1.699-2.527-3.646-3.79-5.844-3.79-1.59 0-2.906.497-3.95 1.492-1.045.995-1.567 2.243-1.567 3.743 0 1.2.359 2.235 1.075 3.104.359.41.885.876 1.578 1.397.694.521 1.563 1.098 2.607 1.73 3.101 1.833 5.174 3.491 6.218 4.975 1.06 1.5 1.59 3.467 1.59 5.9 0 3.158-1.029 5.717-3.086 7.675C17.75 38.021 15.077 39 11.758 39c-2.68 0-4.948-.584-6.802-1.753-.935-.584-1.808-1.346-2.619-2.286C1.527 34.02.748 32.88 0 31.537l4.067-2.795c1.107 1.974 2.19 3.332 3.25 4.074 1.059.743 2.439 1.114 4.137 1.114 1.886 0 3.362-.505 4.43-1.516 1.067-1.01 1.601-2.448 1.601-4.312 0-1.28-.39-2.36-1.169-3.246-.39-.458-.97-.971-1.74-1.54-.773-.568-1.75-1.208-2.935-1.919-2.712-1.627-4.605-3.175-5.68-4.644-1.029-1.468-1.543-3.308-1.543-5.52 0-2.952 1.013-5.401 3.04-7.344C9.481 1.931 12.037.951 15.123.951c2.01 0 3.724.411 5.143 1.232 1.45.822 2.937 2.22 4.465 4.194M46.61 18.112l-.656 5.334c-1.062-1.375-2.078-2.362-3.046-2.963-.953-.585-2.077-.877-3.374-.877-1.968 0-3.584.735-4.85 2.204-1.265 1.47-1.897 3.36-1.897 5.667 0 2.166.593 3.897 1.78 5.192 1.203 1.313 2.757 1.968 4.663 1.968 1.827 0 3.717-.797 5.67-2.394l-.68 5.524c-2 .822-3.905 1.233-5.717 1.233-3.233 0-5.865-1.067-7.895-3.2-2.015-2.134-3.023-4.9-3.023-8.3 0-3.492 1.086-6.409 3.257-8.748 2.187-2.355 4.904-3.532 8.153-3.532 2.656 0 5.194.964 7.615 2.892M67.804 26.471c0-2.008-.57-3.638-1.71-4.89-1.14-1.27-2.613-1.904-4.419-1.904-1.964 0-3.611.78-4.942 2.337-1.33 1.574-1.995 3.502-1.995 5.783 0 1.991.554 3.622 1.663 4.89 1.109 1.27 2.534 1.904 4.276 1.904 1.932 0 3.603-.795 5.013-2.385 1.41-1.623 2.114-3.534 2.114-5.735zm6.391-10.697L71.44 38.47h-5.25l.308-2.457C64.25 38.004 61.92 39 59.513 39c-2.961 0-5.377-1.02-7.246-3.06-1.869-2.04-2.804-4.682-2.804-7.927 0-3.742 1.07-6.81 3.208-9.204 2.17-2.393 4.95-3.59 8.339-3.59 1.6 0 2.961.266 4.086.796 1.14.53 2.304 1.446 3.492 2.746l.357-2.987h5.25zM85.874 15.764l-.234 2.058c2.047-1.735 4.116-2.602 6.21-2.602 2.156 0 3.882.607 5.178 1.821 1.266 1.215 1.899 2.871 1.899 4.968 0 1.136-.094 2.493-.281 4.07l-1.477 11.97h-5.155l1.594-13.106c.062-.488.105-.922.128-1.301.024-.378.036-.718.036-1.018 0-2.018-1.079-3.028-3.235-3.028-1.327 0-2.468.41-3.421 1.23a5.882 5.882 0 0 0-1.734 2.366c-.203.473-.375 1.053-.516 1.739-.14.686-.265 1.478-.374 2.377l-1.313 10.74H78l2.719-22.284h5.155zM122.024 26.471c0-2.008-.57-3.638-1.71-4.89-1.141-1.27-2.614-1.904-4.42-1.904-1.964 0-3.61.78-4.941 2.337-1.33 1.574-1.996 3.502-1.996 5.783 0 1.991.554 3.622 1.663 4.89 1.11 1.27 2.534 1.904 4.277 1.904 1.932 0 3.603-.795 5.012-2.385 1.41-1.623 2.115-3.534 2.115-5.735zm6.39-10.697L125.66 38.47h-5.25l.308-2.457C118.468 38.004 116.14 39 113.732 39c-2.961 0-5.377-1.02-7.245-3.06-1.87-2.04-2.804-4.682-2.804-7.927 0-3.742 1.069-6.81 3.207-9.204 2.17-2.393 4.95-3.59 8.34-3.59 1.599 0 2.961.266 4.085.796 1.141.53 2.305 1.446 3.493 2.746l.357-2.987h5.25zM140.233 20.764l-2.108 17.285h-5.118l2.107-17.285h-2.894l.579-4.808h2.894l1.251-10.249h5.118l-1.25 10.25h4.725l-.58 4.807zM156 5.792c0 .765-.273 1.426-.82 1.983-.547.558-1.203.836-1.968.836-.765 0-1.43-.286-1.992-.86-.546-.605-.82-1.298-.82-2.079 0-.78.266-1.44.797-1.982.546-.558 1.195-.836 1.945-.836.765 0 1.428.295 1.991.884.578.573.867 1.258.867 2.054zm-1.617 10.703L151.665 39h-5.177l2.718-22.505h5.177zM177.878 18.112l-.656 5.334c-1.062-1.375-2.078-2.362-3.046-2.963-.952-.585-2.077-.877-3.373-.877-1.968 0-3.585.735-4.85 2.204-1.265 1.47-1.898 3.36-1.898 5.667 0 2.166.593 3.897 1.78 5.192 1.203 1.313 2.757 1.968 4.663 1.968 1.827 0 3.717-.797 5.67-2.394l-.68 5.524c-1.999.822-3.904 1.233-5.716 1.233-3.234 0-5.866-1.067-7.896-3.2-2.015-2.134-3.022-4.9-3.022-8.3 0-3.492 1.085-6.409 3.256-8.748 2.187-2.355 4.905-3.532 8.153-3.532 2.656 0 5.194.964 7.615 2.892M199.583 0l1.197 12.944h-2.099l-.566-6.622L193.66 14l-2.588-7.678-2.15 6.622h-2.227l4.274-12.67 3.168 9.19L199.583 0zm-14.78 3.402l-1.173 9.542h-2.163l1.172-9.542h-2.859l.232-1.93h7.751l-.232 1.93h-2.729z"/>
    </g>
</svg>
